<?xml version="1.0" encoding="UTF-8"?>
<svg version="1.1" xmlns="http://www.w3.org/2000/svg" width="361" height="340">
<path d="M0 0 C119.13 0 238.26 0 361 0 C361 112.2 361 224.4 361 340 C241.87 340 122.74 340 0 340 C0 227.8 0 115.6 0 0 Z " fill="#DF7275" transform="translate(0,0)"/>
<path d="M0 0 C4.10688641 -0.22464035 8.21134024 -0.38674974 12.32299805 -0.49438477 C13.71718697 -0.53929629 15.1109604 -0.60045824 16.50366211 -0.67895508 C27.91183223 -1.30523783 27.91183223 -1.30523783 32.87548828 1.79736328 C39.68749513 8.30017266 42.39255728 14.60045891 42.75 24 C42.78601318 24.72823975 42.82202637 25.45647949 42.85913086 26.20678711 C43.15073641 33.51589209 42.6885387 40.72267564 42 48 C43.15242188 47.95230469 44.30484375 47.90460938 45.4921875 47.85546875 C50.04707957 47.86649997 53.8522992 48.80182448 58.125 50.3125 C58.80175781 50.50650391 59.47851562 50.70050781 60.17578125 50.90039062 C65.88801121 52.91679675 68.03648448 56.50778664 70.75808716 61.74275208 C72.97714147 67.56281433 72.7351525 73.26232847 72.5859375 79.41796875 C72.57471601 80.76986283 72.56618982 82.12178168 72.56021118 83.47370911 C72.53754315 86.99404924 72.47882165 90.51285125 72.4119873 94.03259277 C72.35008003 97.6393555 72.32309411 101.24637223 72.29296875 104.85351562 C72.22904735 111.90302508 72.12371239 118.95124885 72 126 C68.04 126.99 64.08 127.98 60 129 C60 131.97 60 134.94 60 138 C54.06 138 48.12 138 42 138 C40.20437199 118.00867479 38.47371495 98.01818188 37 78 C35.92689032 81.21932903 35.74903088 83.83645158 35.5703125 87.22265625 C35.4988501 88.47530273 35.4273877 89.72794922 35.35375977 91.01855469 C35.31678986 91.67932007 35.27981995 92.34008545 35.24172974 93.02087402 C34.23863286 110.56523504 32.66291037 127.56482109 26 144 C25.66935547 145.62035156 25.66935547 145.62035156 25.33203125 147.2734375 C23.67204953 151.91749193 21.50606397 153.90108185 17.75 156.9375 C17.1324585 157.45111084 16.51491699 157.96472168 15.87866211 158.49389648 C9.70235806 163.4901146 3.10708145 167.45925714 -4 171 C-5.02351563 171.56203125 -6.04703125 172.1240625 -7.1015625 172.703125 C-12.42387624 174.93239344 -18.27984511 174.31293976 -23.9375 174.1875 C-25.09830078 174.17396484 -26.25910156 174.16042969 -27.45507812 174.14648438 C-30.30387052 174.1113141 -33.15168844 174.06209287 -36 174 C-36.28617188 173.19175781 -36.57234375 172.38351563 -36.8671875 171.55078125 C-37.24101562 170.70902344 -37.61484375 169.86726562 -38 169 C-40.04105639 168.11306697 -40.04105639 168.11306697 -42 168 C-42.49495145 161.9368447 -41.20286181 158.86320824 -38 154 C-37.41992188 152.76830078 -37.41992188 152.76830078 -36.828125 151.51171875 C-34.35778513 148.11764068 -31.34293743 146.95181283 -27.5625 145.4375 C-26.91345703 145.15970703 -26.26441406 144.88191406 -25.59570312 144.59570312 C-21.36635058 142.82499248 -17.06693647 141.33098744 -12.71459961 139.89086914 C-11.64205429 139.53537491 -10.56950897 139.17988068 -9.46446228 138.81361389 C-8.24455345 138.41087502 -8.24455345 138.41087502 -7 138 C-6.8841575 126.351918 -6.79531043 114.70397301 -6.74093914 103.05543232 C-6.71484371 97.64652983 -6.6794461 92.23802139 -6.62280273 86.8293457 C-6.56848185 81.60978001 -6.53857906 76.39059337 -6.52561378 71.17076683 C-6.5163741 69.17921163 -6.49833099 67.1876772 -6.47134972 65.19628334 C-6.43505841 62.40684789 -6.43005468 59.6189792 -6.43237305 56.8293457 C-6.41439667 56.00575562 -6.39642029 55.18216553 -6.37789917 54.33361816 C-6.41679977 50.00881197 -6.5289372 48.53484489 -9.5 45.16149902 C-10.325 44.44820435 -11.15 43.73490967 -12 43 C-12.56762695 39.58666992 -12.56762695 39.58666992 -12.48828125 35.73046875 C-12.48120651 35.04946609 -12.47413177 34.36846344 -12.46684265 33.66682434 C-12.43900069 31.50590005 -12.37629527 29.34763178 -12.3125 27.1875 C-12.28740332 25.71683448 -12.26459253 24.24612807 -12.24414062 22.77539062 C-12.18921188 19.18274043 -12.10301647 15.59162972 -12 12 C-8.04 12 -4.08 12 0 12 C0 8.04 0 4.08 0 0 Z " fill="#F0C1C2" transform="translate(254,19)"/>
<path d="M0 0 C0.96591064 0.01063477 1.93182129 0.02126953 2.92700195 0.03222656 C10.37417998 0.22920557 17.62946056 0.92098384 24.3125 4.5 C26.62716688 7.02509115 27.87834109 9.58496643 29.125 12.75 C31.22735548 17.59731773 33.89738307 21.48503818 37.3125 25.5 C37.85261719 26.14710937 38.39273438 26.79421875 38.94921875 27.4609375 C49.19793458 38.71007028 64.825765 44.96802113 78.125 51.80078125 C82.2548783 53.92931454 86.30195229 56.15494363 90.3125 58.5 C90.3125 59.16 90.3125 59.82 90.3125 60.5 C91.034375 60.603125 91.75625 60.70625 92.5 60.8125 C95.59043421 61.56793947 97.72993841 62.65531315 100.3125 64.5 C100.3125 65.16 100.3125 65.82 100.3125 66.5 C100.90160156 66.62117188 101.49070313 66.74234375 102.09765625 66.8671875 C108.58816298 68.721618 113.07885687 73.80209779 116.3125 79.5 C122.37950223 90.74179825 120.64880435 101.85733813 118.8125 114 C118.68939453 114.95616211 118.56628906 115.91232422 118.43945312 116.89746094 C117.31163055 123.50762439 117.31163055 123.50762439 114.6875 126.11401367 C112.61932081 127.45099508 110.55794995 128.49032382 108.3125 129.5 C107.57193359 129.87012207 106.83136719 130.24024414 106.06835938 130.62158203 C103.83382852 131.72772317 101.58043351 132.77679726 99.3125 133.8125 C98.15041016 134.35100586 98.15041016 134.35100586 96.96484375 134.90039062 C95.08291114 135.77165572 93.19801684 136.63651899 91.3125 137.5 C86.72487489 126.00860669 85.67068166 116.15754052 85.91772461 103.87597656 C86.39322696 94.49416985 86.39322696 94.49416985 82.62109375 86.26171875 C81.01033872 84.73394051 81.01033872 84.73394051 79.3125 83.5 C78.4359375 82.83613281 77.559375 82.17226562 76.65625 81.48828125 C73.22277507 79.46498352 69.78318045 77.45858431 66.3125 75.5 C65.47992676 75.02304688 64.64735352 74.54609375 63.78955078 74.0546875 C43.19532332 62.29710811 23.79743481 54.8869265 -0.125 53.9375 C-1.14271484 53.89431641 -2.16042969 53.85113281 -3.20898438 53.80664062 C-5.70169336 53.70131489 -8.19458086 53.60022857 -10.6875 53.5 C-10.6875 59.44 -10.6875 65.38 -10.6875 71.5 C-24.49277639 78.83084156 -38.39247952 85.94565208 -52.37329102 92.93554688 C-55.80639172 94.65321421 -59.23621677 96.37731327 -62.66601562 98.1015625 C-64.85136768 99.19570171 -67.03690728 100.28946643 -69.22265625 101.3828125 C-70.24641861 101.89828644 -71.27018097 102.41376038 -72.32496643 102.94485474 C-73.26452682 103.41309662 -74.20408722 103.8813385 -75.17211914 104.36376953 C-75.99861465 104.7777298 -76.82511017 105.19169006 -77.676651 105.61819458 C-79.6875 106.5 -79.6875 106.5 -81.6875 106.5 C-81.17300104 100.01460516 -80.32346071 93.79900518 -78.6875 87.5 C-78.52894531 86.77039063 -78.37039062 86.04078125 -78.20703125 85.2890625 C-75.64366385 75.4828919 -67.23677409 67.56369525 -58.6875 62.5 C-47.57233105 56.64368937 -37.33347859 53.32793879 -24.75 52.375 C-23.68458984 52.28863281 -22.61917969 52.20226563 -21.52148438 52.11328125 C-18.91059173 51.90253655 -16.29936316 51.69828865 -13.6875 51.5 C-14.36824585 50.8507959 -14.36824585 50.8507959 -15.06274414 50.18847656 C-23.91711609 41.57164096 -29.47445561 33.09195171 -29.8125 20.5625 C-29.75388519 15.92556906 -29.54717405 12.6417015 -26.7109375 8.875 C-24.09114851 6.99329398 -21.65780021 5.75456101 -18.6875 4.5 C-17.81967896 3.99218994 -17.81967896 3.99218994 -16.93432617 3.47412109 C-11.29123558 0.2365994 -6.43121192 -0.12696479 0 0 Z " fill="#FCF4F4" transform="translate(114.6875,7.5)"/>
<path d="M0 0 C1.13953125 0.23203125 2.2790625 0.4640625 3.453125 0.703125 C3.453125 4.663125 3.453125 8.623125 3.453125 12.703125 C7.413125 12.703125 11.373125 12.703125 15.453125 12.703125 C16.74251502 18.65494933 16.63695114 24.58242936 16.640625 30.640625 C16.65287109 31.69958984 16.66511719 32.75855469 16.67773438 33.84960938 C16.69830013 44.83857888 16.69830013 44.83857888 14.453125 49.703125 C12.18613941 51.64667555 10.29525833 53.03890877 7.765625 54.515625 C7.16556641 54.89654297 6.56550781 55.27746094 5.94726562 55.66992188 C-1.80730402 60.42594687 -9.08139753 60.93797581 -17.984375 61.078125 C-39.00201584 61.75114665 -54.09329076 68.42510052 -71.546875 79.8125 C-88.01837348 90.1929756 -103.79123576 99.10185946 -123.984375 95.015625 C-128.18602613 93.46764827 -132.08204377 91.57819772 -135.546875 88.703125 C-135.546875 88.043125 -135.546875 87.383125 -135.546875 86.703125 C-136.37445313 86.56197266 -136.37445313 86.56197266 -137.21875 86.41796875 C-144.79252533 84.09246391 -152.37885718 77.08360629 -157.15234375 70.91015625 C-160.1613066 63.99038454 -159.09213664 56.0793033 -158.546875 48.703125 C-152.60771816 46.19602191 -146.84410057 44.10250846 -140.546875 42.703125 C-139.29533134 44.41032776 -138.04571628 46.11894442 -136.796875 47.828125 C-136.10078125 48.77945313 -135.4046875 49.73078125 -134.6875 50.7109375 C-132.57109247 53.66927357 -130.54758166 56.66601624 -128.546875 59.703125 C-98.13619493 57.37453578 -70.5667146 48.95925339 -46.546875 29.703125 C-45.72703125 29.08695313 -44.9071875 28.47078125 -44.0625 27.8359375 C-39.21636798 24.08846274 -35.12336104 20.28895599 -31.078125 15.6875 C-21.39174749 4.88839462 -15.12001606 -2.08045481 0 0 Z " fill="#FBEEEF" transform="translate(340.546875,156.296875)"/>
<path d="M0 0 C0 5.94 0 11.88 0 18 C-9.9 18 -19.8 18 -30 18 C-30 21.96 -30 25.92 -30 30 C-33.96 30 -37.92 30 -42 30 C-42 59.7 -42 89.4 -42 120 C-38.04 120 -34.08 120 -30 120 C-27.63188576 131.96702393 -25.41504373 143.87903327 -24 156 C-34.60488907 163.88171296 -42.44397326 168.49268609 -56 167 C-63.82710937 165.514685 -72.8454273 163.59547631 -78 157 C-79.13574083 153.97981769 -79.06348017 151.20121441 -79 148 C-79.02320312 146.80117188 -79.04640625 145.60234375 -79.0703125 144.3671875 C-79.12311508 140.57294472 -79.0880233 136.79338523 -79 133 C-78.98324219 132.15308594 -78.96648437 131.30617188 -78.94921875 130.43359375 C-78.70256081 126.71962989 -78.33081086 125.29307124 -75.49829102 122.78369141 C-72.3497925 119.27551393 -72.23994746 116.58741496 -72.21484375 112.0859375 C-72.17930641 110.91349991 -72.17930641 110.91349991 -72.14305115 109.71737671 C-72.07137273 107.14487417 -72.03483774 104.57324471 -72 102 C-71.96020459 100.21252625 -71.91867632 98.42509031 -71.87548828 96.63769531 C-71.72499782 90.00771768 -71.61372936 83.37715318 -71.52319336 76.74609375 C-71.377 66.45127979 -71.07549311 56.2243329 -70.07421875 45.97265625 C-69.99579239 45.15789825 -69.91736603 44.34314026 -69.83656311 43.50369263 C-68.73659841 33.2118572 -65.20573839 25.23365781 -59 17 C-58.56816406 16.34515625 -58.13632813 15.6903125 -57.69140625 15.015625 C-50.66111416 5.48948396 -36.29037846 -1.50743648 -24.8671875 -3.73828125 C-16.06817015 -4.54146131 -8.18264784 -3.18984577 0 0 Z " fill="#FBF0F0" transform="translate(146,151)"/>
<path d="M0 0 C5.905058 4.33239211 11.37259041 9.15925813 16.75 14.125 C18.49579499 15.72034946 20.25866227 17.21263857 22.11328125 18.67578125 C23.50546875 19.88234375 23.50546875 19.88234375 24.92578125 21.11328125 C25.87517578 21.91572266 25.87517578 21.91572266 26.84375 22.734375 C30.12129593 25.88108077 31.77110922 27.91970593 32.3671875 32.51953125 C32.36367936 35.74702193 32.23422665 38.90153232 31.92578125 42.11328125 C29.05183627 42.92967443 26.17672995 43.74150266 23.30078125 44.55078125 C22.49253906 44.78087891 21.68429688 45.01097656 20.8515625 45.24804688 C16.55896385 46.45206845 12.35035918 47.49040377 7.92578125 48.11328125 C7.29381741 46.61620186 6.67063732 45.11541422 6.05078125 43.61328125 C5.70273438 42.77796875 5.3546875 41.94265625 4.99609375 41.08203125 C3.69264565 37.46662776 2.81263408 33.85244454 1.92578125 30.11328125 C-26.75508688 29.07281443 -45.34785551 36.73696859 -69.07421875 52.11328125 C-71.17714478 53.46937374 -73.2811551 54.82378775 -75.38671875 56.17578125 C-76.22847656 56.72363281 -77.07023437 57.27148438 -77.9375 57.8359375 C-81.63653647 60.04724449 -84.54089148 60.22543804 -88.76171875 60.17578125 C-89.75558594 60.16675781 -90.74945313 60.15773438 -91.7734375 60.1484375 C-92.53269531 60.13683594 -93.29195312 60.12523437 -94.07421875 60.11328125 C-94.18378906 60.79132813 -94.29335937 61.469375 -94.40625 62.16796875 C-96.6162291 75.14036641 -96.6162291 75.14036641 -99.07421875 81.11328125 C-100.06421875 81.60828125 -100.06421875 81.60828125 -101.07421875 82.11328125 C-101.16896484 80.40398437 -101.16896484 80.40398437 -101.265625 78.66015625 C-102.01421313 68.27847918 -103.94472874 59.28606818 -107.86157227 49.61425781 C-108.17408936 48.82116211 -108.48660645 48.02806641 -108.80859375 47.2109375 C-109.09959961 46.51492432 -109.39060547 45.81891113 -109.69042969 45.10180664 C-110.07421875 43.11328125 -110.07421875 43.11328125 -109.44799805 41.0378418 C-107.70293027 38.59313426 -106.00540586 37.64116734 -103.359375 36.22265625 C-102.37694824 35.68624512 -101.39452148 35.14983398 -100.38232422 34.59716797 C-99.31127441 34.02498535 -98.24022461 33.45280273 -97.13671875 32.86328125 C-94.84720585 31.61388315 -92.55950498 30.36115995 -90.2734375 29.10546875 C-89.38570648 28.61900375 -89.38570648 28.61900375 -88.4800415 28.12271118 C-82.03741236 24.57535835 -75.75051709 20.78044677 -69.44921875 16.98828125 C-60.85349483 11.84810913 -52.19272182 6.89392295 -43.32421875 2.23828125 C-42.39013184 1.74440918 -41.45604492 1.25053711 -40.49365234 0.74169922 C-27.61230274 -5.91109717 -12.99976257 -7.97825327 0 0 Z " fill="#FCF5F6" transform="translate(150.07421875,90.88671875)"/>
<path d="M0 0 C5.94 0 11.88 0 18 0 C18.71571583 6.03171295 19.23731277 12.02416241 19.53515625 18.08984375 C19.57831467 18.93984451 19.62147308 19.78984528 19.66593933 20.66560364 C19.80310021 23.42268892 19.93401933 26.17999703 20.0625 28.9375 C20.10669067 29.88330933 20.15088135 30.82911865 20.19641113 31.80358887 C20.79068169 44.78514763 21.21099341 57.75446131 21.25 70.75 C21.25762863 71.76065018 21.25762863 71.76065018 21.26541138 72.79171753 C21.30933373 79.93917252 21.06082912 87.03473945 20.296875 94.140625 C20.17151367 95.33719727 20.04615234 96.53376953 19.91699219 97.76660156 C18.79284357 101.73045253 17.08337417 103.33669763 14 106 C13.27941406 106.71800781 12.55882812 107.43601562 11.81640625 108.17578125 C5.16372303 114.48257106 -1.86038401 118.85994215 -10 123 C-11.02867187 123.56589844 -12.05734375 124.13179688 -13.1171875 124.71484375 C-18.43204193 126.93411955 -24.29032409 126.31270743 -29.9375 126.1875 C-31.67870117 126.16719727 -31.67870117 126.16719727 -33.45507812 126.14648438 C-36.30387052 126.1113141 -39.15168844 126.06209287 -42 126 C-42.28617188 125.19175781 -42.57234375 124.38351563 -42.8671875 123.55078125 C-43.24101562 122.70902344 -43.61484375 121.86726563 -44 121 C-46.04105639 120.11306697 -46.04105639 120.11306697 -48 120 C-48.49495145 113.9368447 -47.20286181 110.86320824 -44 106 C-43.41992188 104.76830078 -43.41992188 104.76830078 -42.828125 103.51171875 C-40.35753758 100.11730057 -37.34273602 98.95179863 -33.5625 97.4375 C-32.85037354 97.13432861 -32.13824707 96.83115723 -31.40454102 96.51879883 C-27.1409172 94.73850529 -22.90449283 93.38623732 -18.4375 92.1875 C-12.94488768 90.43135865 -10.46527468 87.75645611 -7.3046875 83.0234375 C-3.47514739 74.14899425 -3.67646868 64.67371061 -3.53613281 55.17184448 C-3.32235169 41.2126956 -2.70498861 27.37569706 -1.25390625 13.48388672 C-0.79484872 8.99306819 -0.40317569 4.49612892 0 0 Z " fill="#FDF9F9" transform="translate(260,67)"/>
<path d="M0 0 C1.4391134 0.28359887 2.87625518 0.57721399 4.3125 0.875 C5.11300781 1.03742188 5.91351563 1.19984375 6.73828125 1.3671875 C9 2 9 2 12 4 C11.47925637 12.67307501 10.31345093 21.20145877 9.01635742 29.7878418 C8.88592041 30.662229 8.7554834 31.53661621 8.62109375 32.4375 C8.5017749 33.21996094 8.38245605 34.00242188 8.25952148 34.80859375 C7.92159661 37.29425364 7.92159661 37.29425364 8 41 C10.31 38.36 12.62 35.72 15 33 C16.11519587 36.34558761 15.89960635 38.078976 15.44140625 41.54296875 C15.30283203 42.61611328 15.16425781 43.68925781 15.02148438 44.79492188 C14.87001953 45.91447266 14.71855469 47.03402344 14.5625 48.1875 C14.41490234 49.31865234 14.26730469 50.44980469 14.11523438 51.61523438 C13.74954204 54.41101124 13.37755968 57.20580518 13 60 C13.58370361 60.19335938 14.16740723 60.38671875 14.76879883 60.5859375 C29.56614426 65.50064518 43.13573923 71.88586269 57 79 C57 79.66 57 80.32 57 81 C57.71115967 81.1043335 58.42231934 81.20866699 59.1550293 81.31616211 C62.3473403 82.08348925 64.67614079 83.30526537 67.51953125 84.94140625 C68.54111328 85.52470703 69.56269531 86.10800781 70.61523438 86.70898438 C71.67033203 87.32064453 72.72542969 87.93230469 73.8125 88.5625 C75.42415039 89.48579102 75.42415039 89.48579102 77.06835938 90.42773438 C79.71587518 91.94564344 82.35951856 93.46989764 85 95 C84.41210545 98.5566249 83.81620468 102.09940622 83.0625 105.625 C82.90910156 106.35976563 82.75570312 107.09453125 82.59765625 107.8515625 C81.97687606 110.08312527 81.09946271 111.96668402 80 114 C71.29701318 114.8332647 65.48804641 113.55566307 57.97900391 109.15722656 C55.52505247 107.72227347 53.04970172 106.32715809 50.57421875 104.9296875 C45.36660364 101.9809395 40.17843563 98.99965032 35 96 C35 95.34 35 94.68 35 94 C34.28884033 93.8956665 33.57768066 93.79133301 32.8449707 93.68383789 C29.6526597 92.91651075 27.32385921 91.69473463 24.48046875 90.05859375 C22.9480957 89.18364258 22.9480957 89.18364258 21.38476562 88.29101562 C19.80211914 87.37352539 19.80211914 87.37352539 18.1875 86.4375 C16.57584961 85.51420898 16.57584961 85.51420898 14.93164062 84.57226562 C12.28412482 83.05435656 9.64048144 81.53010236 7 80 C7 79.34 7 78.68 7 78 C5.35 77.67 3.7 77.34 2 77 C2 76.34 2 75.68 2 75 C1.26265625 74.90074219 0.5253125 74.80148437 -0.234375 74.69921875 C-3.3285956 73.91692286 -4.85046108 72.88691056 -7.25 70.8125 C-7.93578125 70.24144531 -8.6215625 69.67039062 -9.328125 69.08203125 C-13.09882789 64.38627274 -12.16052584 57.27737903 -12.16796875 51.5078125 C-12.17129715 50.60304169 -12.17462555 49.69827087 -12.17805481 48.76608276 C-12.18310119 46.85822048 -12.18546384 44.95034942 -12.18530273 43.04248047 C-12.18748761 40.14145195 -12.20566332 37.24080503 -12.22460938 34.33984375 C-12.22754419 32.47916796 -12.2295284 30.61849037 -12.23046875 28.7578125 C-12.23765427 27.89922638 -12.24483978 27.04064026 -12.25224304 26.15603638 C-12.21999838 17.55256947 -11.11036232 11.3952434 -4.875 5 C-3.96492187 4.05125 -3.05484375 3.1025 -2.1171875 2.125 C-1.41851562 1.42375 -0.71984375 0.7225 0 0 Z " fill="#FDF9F9" transform="translate(145,187)"/>
<path d="M0 0 C0.89203125 0.00902344 1.7840625 0.01804688 2.703125 0.02734375 C3.37859375 0.03894531 4.0540625 0.05054688 4.75 0.0625 C4.38964965 24.99219217 4.38964965 24.99219217 -2.92529297 32.86572266 C-20.2560571 48.70912886 -40.99435712 56.24432997 -64.24267578 55.20947266 C-67.27664597 54.98733083 -70.24740909 54.54780707 -73.25 54.0625 C-73.99938026 48.06745791 -74.70101165 42.0012338 -73.25 36.0625 C-70.32195095 32.4651826 -66.79244599 30.95830108 -62.58349609 29.12939453 C-58.83615283 27.41607688 -55.26826771 25.38558215 -51.66235352 23.39550781 C-48.55247224 21.68197474 -45.42726474 19.99994826 -42.296875 18.32421875 C-36.22764882 15.06407306 -30.20814325 11.71919278 -24.22192383 8.30908203 C-16.48596915 3.95412403 -9.04472944 -0.1190096 0 0 Z " fill="#FAEDED" transform="translate(327.25,222.9375)"/>
<path d="M0 0 C21.4532977 2.17393417 21.4532977 2.17393417 27.28125 8.4609375 C29.37179278 11.22560459 31.21935306 14.02798496 33 17 C33.66 18.093125 34.32 19.18625 35 20.3125 C37.00604358 27.70978569 37.55017789 35.94508881 34 42.9375 C31.02286612 47.45337723 27.27713934 50.74565485 23 54 C22.3090625 54.58265625 21.618125 55.1653125 20.90625 55.765625 C15.80087615 59.72413951 11.64681105 60.92146403 5.1875 60.4765625 C-8.41877238 58.44229139 -8.41877238 58.44229139 -12.28369141 53.28808594 C-15.14520021 48.45102862 -17.10608706 43.27435527 -19 38 C-19.4640625 36.78699219 -19.928125 35.57398438 -20.40625 34.32421875 C-23.19899678 26.59699033 -23.19899678 26.59699033 -22 23 C-18.04 23.33 -14.08 23.66 -10 24 C-9.81824219 23.09636719 -9.63648438 22.19273437 -9.44921875 21.26171875 C-9.19785156 20.08222656 -8.94648438 18.90273438 -8.6875 17.6875 C-8.44386719 16.51574219 -8.20023438 15.34398437 -7.94921875 14.13671875 C-6.99313673 10.97732015 -6.38392637 10.09201702 -4 8 C-2.80400932 5.96767758 -2.80400932 5.96767758 -1.8125 3.8125 C-1.46832031 3.09707031 -1.12414062 2.38164062 -0.76953125 1.64453125 C-0.38861328 0.83048828 -0.38861328 0.83048828 0 0 Z " fill="#F6D9DA" transform="translate(235,277)"/>
<path d="M0 0 C1.89492188 0.01353516 1.89492188 0.01353516 3.828125 0.02734375 C4.79234375 0.03894531 5.7565625 0.05054687 6.75 0.0625 C6.87375 0.701875 6.9975 1.34125 7.125 2 C7.33125 2.680625 7.5375 3.36125 7.75 4.0625 C8.41 4.3925 9.07 4.7225 9.75 5.0625 C10.4609375 6.92578125 10.4609375 6.92578125 11.125 9.375 C12.20210361 13.25477118 13.46496994 16.97970223 14.875 20.75 C17.28104129 27.79363996 17.54799791 34.66922337 17.75 42.0625 C17.09 42.0625 16.43 42.0625 15.75 42.0625 C15.564375 43.91875 15.564375 43.91875 15.375 45.8125 C14.5968254 51.75396825 14.5968254 51.75396825 12.75 54.0625 C7.90972505 55.51168412 2.81781451 55.24635447 -2.1875 55.25 C-3.06857422 55.26224609 -3.94964844 55.27449219 -4.85742188 55.28710938 C-9.65651477 55.29789385 -13.86907407 55.24966904 -18.25 53.0625 C-21.19306129 49.76464278 -23.18066522 45.95565526 -25.25 42.0625 C-25.68957031 41.23621094 -26.12914062 40.40992188 -26.58203125 39.55859375 C-30.18044939 31.43354361 -31.4355435 20.76011437 -29.25 12.0625 C-26.49383941 8.35650717 -23.45117357 6.82795043 -19.25 5.0625 C-17.79033502 4.27329131 -16.33184894 3.48189499 -14.875 2.6875 C-9.59999052 0.32284058 -5.81446684 -0.05383766 0 0 Z " fill="#F7DCDC" transform="translate(31.25,126.9375)"/>
<path d="M0 0 C0 29.7 0 59.4 0 90 C-3.84642938 88.71785687 -7.00121256 87.62257334 -10.5234375 85.8359375 C-11.71259766 85.23652344 -11.71259766 85.23652344 -12.92578125 84.625 C-13.73402344 84.2125 -14.54226562 83.8 -15.375 83.375 C-16.20644531 82.95476562 -17.03789063 82.53453125 -17.89453125 82.1015625 C-19.93156359 81.07133925 -21.96662189 80.03741179 -24 79 C-24.85942521 66.94406307 -25.21512043 54.92641816 -25.24023438 42.84033203 C-25.2500849 39.97530595 -25.28131251 37.11095728 -25.3125 34.24609375 C-25.31902021 32.39323332 -25.32427452 30.5403679 -25.328125 28.6875 C-25.3466452 27.42631348 -25.3466452 27.42631348 -25.36553955 26.13964844 C-25.33517756 17.99203752 -23.40001288 10.79737402 -18.125 4.4375 C-17.46757813 3.59058594 -16.81015625 2.74367187 -16.1328125 1.87109375 C-13 0 -13 0 0 0 Z " fill="#FCF4F4" transform="translate(62,181)"/>
<path d="M0 0 C1.81274414 0.01353516 1.81274414 0.01353516 3.66210938 0.02734375 C6.62899213 0.05079737 9.59577222 0.08666468 12.5625 0.125 C12.5625 6.065 12.5625 12.005 12.5625 18.125 C-1.24277639 25.45584156 -15.14247952 32.57065208 -29.12329102 39.56054688 C-32.55639172 41.27821421 -35.98621677 43.00231327 -39.41601562 44.7265625 C-41.60136768 45.82070171 -43.78690728 46.91446643 -45.97265625 48.0078125 C-46.99641861 48.52328644 -48.02018097 49.03876038 -49.07496643 49.56985474 C-50.01452682 50.03809662 -50.95408722 50.5063385 -51.92211914 50.98876953 C-52.74861465 51.4027298 -53.57511017 51.81669006 -54.426651 52.24319458 C-56.4375 53.125 -56.4375 53.125 -58.4375 53.125 C-57.92300104 46.63960516 -57.07346071 40.42400518 -55.4375 34.125 C-55.27894531 33.39539063 -55.12039062 32.66578125 -54.95703125 31.9140625 C-52.39366385 22.1078919 -43.98677409 14.18869525 -35.4375 9.125 C-23.56188404 2.86802844 -13.54718073 -0.19215859 0 0 Z " fill="#FCF6F6" transform="translate(91.4375,60.875)"/>
<path d="M0 0 C5.94 0 11.88 0 18 0 C18 3.96 18 7.92 18 12 C19.39347656 12.38542969 20.78695312 12.77085937 22.22265625 13.16796875 C28.51818828 15.05962043 34.44126729 17.63737001 40.4375 20.3125 C41.49259766 20.77333984 42.54769531 21.23417969 43.63476562 21.70898438 C49.78946264 24.43220108 55.72253438 27.38424282 61.57763672 30.7043457 C64.95294767 32.50970503 68.37941278 33.7703666 72 35 C72 39.29 72 43.58 72 48 C53.11838414 54.57995704 36.88683639 50.90075368 19 43 C18 42 18 42 17.90234375 39.27734375 C17.91394531 38.17519531 17.92554688 37.07304687 17.9375 35.9375 C17.94652344 34.83277344 17.95554688 33.72804688 17.96484375 32.58984375 C17.97644531 31.73519531 17.98804688 30.88054687 18 30 C17.20335937 29.76539063 16.40671875 29.53078125 15.5859375 29.2890625 C11.06856229 27.66516945 6.89569499 25.55462105 2.625 23.375 C1.79355469 22.95476562 0.96210938 22.53453125 0.10546875 22.1015625 C-1.93156359 21.07133925 -3.96662189 20.03741179 -6 19 C-4.62532138 12.28109637 -2.67378383 6.32795507 0 0 Z " fill="#FCF2F3" transform="translate(134,283)"/>
<path d="M0 0 C14.98833472 1.64644586 28.51429364 7.68911823 41.64550781 14.80566406 C44.34742487 16.17623418 47.11062338 17.33783591 49.8984375 18.5234375 C61.98758579 24.08082552 61.98758579 24.08082552 66 29 C68.58671386 37.0773065 67.37541418 45.77156064 66 54 C60.35069505 52.19465222 54.85789554 50.21962714 49.4375 47.8125 C48.75405518 47.51061768 48.07061035 47.20873535 47.36645508 46.89770508 C39.78584738 43.51147462 32.37565581 39.80872662 25 36 C24.22156738 35.59845703 23.44313477 35.19691406 22.64111328 34.78320312 C12.9442343 29.76564326 3.35342569 24.63819273 -6 19 C-4.70024676 12.28460827 -2.70071112 6.27980887 0 0 Z " fill="#FDF7F7" transform="translate(164,1)"/>
<path d="M0 0 C17.30209506 4.7187532 17.30209506 4.7187532 20.43058777 8.92208862 C24.47564868 16.38671924 24.65667722 22.95032634 24.48828125 31.3203125 C24.47893302 32.67364177 24.47182643 34.02698819 24.46684265 35.38034058 C24.44792991 38.90869485 24.39897167 42.43598772 24.34332275 45.96392822 C24.29178528 49.57736866 24.26925579 53.19098392 24.24414062 56.8046875 C24.19083227 63.87022073 24.10571693 70.93504036 24 78 C21.12605502 78.81639318 18.2509487 79.62822141 15.375 80.4375 C14.56675781 80.66759766 13.75851562 80.89769531 12.92578125 81.13476562 C11.73662109 81.46831055 11.73662109 81.46831055 10.5234375 81.80859375 C9.4394165 82.11494751 9.4394165 82.11494751 8.33349609 82.42749023 C5.58806348 83.10106624 2.78839185 83.53526803 0 84 C0 56.28 0 28.56 0 0 Z " fill="#FBF4F4" transform="translate(302,67)"/>
<path d="M0 0 C2.15652878 0.42846822 4.30166576 0.91556753 6.4375 1.4375 C7.98812829 1.6976294 9.54036227 1.94829731 11.09375 2.19140625 C12.72989643 2.47763017 14.36532394 2.76799457 16 3.0625 C17.17961304 3.25307983 17.17961304 3.25307983 18.38305664 3.44750977 C20.59705772 3.90744629 22.42860306 4.39782014 24.4375 5.4375 C26.07992029 8.05722822 26.73729593 9.53938655 27.4375 12.4375 C27.63206787 13.21722168 27.82663574 13.99694336 28.02709961 14.80029297 C28.61895333 17.37906635 29.13162959 19.96318665 29.625 22.5625 C29.89086914 23.88314453 29.89086914 23.88314453 30.16210938 25.23046875 C32.27346075 36.03993566 32.27346075 36.03993566 29.6640625 40.40234375 C23.03339537 47.97882676 23.03339537 47.97882676 18.359375 48.8046875 C13.65770643 48.88805042 9.18388994 48.02111573 4.625 46.93896484 C2.61449678 46.47807493 0.57197314 46.16326755 -1.46875 45.86328125 C-5.05937215 45.16375689 -7.52893696 44.48809455 -10.5625 42.4375 C-13.01860811 37.94157329 -13.8034775 33.46798705 -14.5625 28.4375 C-14.78035156 27.31214844 -14.99820313 26.18679687 -15.22265625 25.02734375 C-15.7585861 22.16313585 -16.23458844 19.33261391 -16.5625 16.4375 C-16.6759375 15.62152344 -16.789375 14.80554688 -16.90625 13.96484375 C-16.24209146 9.08176906 -12.26081432 5.82939042 -8.73828125 2.66015625 C-5.35948268 0.29541285 -4.04178815 -0.27698968 0 0 Z " fill="#FBF1F1" transform="translate(174.5625,144.5625)"/>
<path d="M0 0 C6 22.85106383 6 22.85106383 6 30 C2.04955313 30.85710792 -1.90146232 31.71153808 -5.85302734 32.56347656 C-7.19758805 32.85375361 -8.54199031 33.14476556 -9.88623047 33.43652344 C-11.81696561 33.85544309 -13.74831842 34.27151281 -15.6796875 34.6875 C-16.84226074 34.93886719 -18.00483398 35.19023438 -19.20263672 35.44921875 C-22 36 -22 36 -24 36 C-25.49449084 32.37984985 -26.78028966 28.72145198 -28 25 C-28.37382813 23.94296875 -28.74765625 22.8859375 -29.1328125 21.796875 C-30.56043167 16.47224135 -30.78477298 13.42598992 -28.078125 8.5078125 C-20.35558852 -1.34140483 -11.71959403 -1.40635128 0 0 Z " fill="#E27A7D" transform="translate(128,13)"/>
<path d="M0 0 C9.9 1.98 19.8 3.96 30 6 C28.02 15.9 26.04 25.8 24 36 C17.4103125 34.7934375 17.4103125 34.7934375 10.6875 33.5625 C8.61408325 33.18460327 8.61408325 33.18460327 6.4987793 32.79907227 C4.86549683 32.49827759 4.86549683 32.49827759 3.19921875 32.19140625 C1.52605591 31.88505249 1.52605591 31.88505249 -0.1809082 31.57250977 C-3 31 -3 31 -6 30 C-5.19099794 25.56185484 -4.37720308 21.12460187 -3.5625 16.6875 C-3.33240234 15.42486328 -3.10230469 14.16222656 -2.86523438 12.86132812 C-2.64287109 11.65283203 -2.42050781 10.44433594 -2.19140625 9.19921875 C-1.98717041 8.08377686 -1.78293457 6.96833496 -1.57250977 5.8190918 C-1 3 -1 3 0 0 Z " fill="#E27C7E" transform="translate(320,169)"/>
<path d="M0 0 C1.41736276 0.31459171 2.83533051 0.6264708 4.25390625 0.93554688 C7.72094124 1.69180656 11.16839217 2.50255684 14.625 3.3125 C14.625 11.2325 14.625 19.1525 14.625 27.3125 C4.725 27.3125 -5.175 27.3125 -15.375 27.3125 C-21.375 7.8125 -21.375 7.8125 -21.375 2.3125 C-15.94992477 -5.45096972 -7.92802242 -1.88775574 0 0 Z " fill="#E07376" transform="translate(95.375,279.6875)"/>
<path d="M0 0 C3.61393308 0.58415469 6.42476184 1.55480398 9.64453125 3.28515625 C10.90620117 3.95708008 10.90620117 3.95708008 12.19335938 4.64257812 C13.05767578 5.11115234 13.92199219 5.57972656 14.8125 6.0625 C15.69615234 6.53494141 16.57980469 7.00738281 17.49023438 7.49414062 C19.66331578 8.65703284 21.83302284 9.82578375 24 11 C22.39327275 16.4558101 19.94892464 21.33091578 17.375 26.375 C15.209375 30.644375 15.209375 30.644375 13 35 C5.08 33.02 -2.84 31.04 -11 29 C-10.29875 25.514375 -9.5975 22.02875 -8.875 18.4375 C-8.66858887 17.35267334 -8.46217773 16.26784668 -8.24951172 15.15014648 C-6.8239466 8.5103357 -4.84106394 4.78071826 0 0 Z " fill="#DF7072" transform="translate(235,290)"/>
<path d="M0 0 C1.79625466 0.33903384 3.57702485 0.760598 5.34765625 1.21484375 C6.42724609 1.48876953 7.50683594 1.76269531 8.61914062 2.04492188 C9.75544922 2.33947266 10.89175781 2.63402344 12.0625 2.9375 C13.20267578 3.22818359 14.34285156 3.51886719 15.51757812 3.81835938 C18.34638847 4.54035699 21.17336766 5.26952198 24 6 C24 13.92 24 21.84 24 30 C14.1 30 4.2 30 -6 30 C-4.87304891 19.85744017 -4.87304891 19.85744017 -4.0625 15.78125 C-3.80339844 14.47800781 -3.80339844 14.47800781 -3.5390625 13.1484375 C-3.36117188 12.27445313 -3.18328125 11.40046875 -3 10.5 C-2.82210938 9.59507813 -2.64421875 8.69015625 -2.4609375 7.7578125 C-2.28820312 6.89929687 -2.11546875 6.04078125 -1.9375 5.15625 C-1.78152344 4.38087891 -1.62554687 3.60550781 -1.46484375 2.80664062 C-1 1 -1 1 0 0 Z " fill="#DF7073" transform="translate(260,31)"/>
<path d="M0 0 C1.11375 0.185625 2.2275 0.37125 3.375 0.5625 C6.82568861 1.31680657 6.82568861 1.31680657 9 0 C11.125 0.9375 11.125 0.9375 13 2 C12.34 2 11.68 2 11 2 C11 2.66 11 3.32 11 4 C12.175625 4.226875 13.35125 4.45375 14.5625 4.6875 C21.54313956 6.22010836 28.25376175 8.671259 35 11 C34.859375 12.86328125 34.859375 12.86328125 34 15 C31.515625 16.16796875 31.515625 16.16796875 28.25 17.1875 C14.62060012 22.07857567 4.03184909 31.83701562 -6 42 C-5.48264278 33.3833263 -4.32840302 24.91509494 -3.01635742 16.38793945 C-2.46436351 12.71491265 -1.99717038 9.27730321 -2.03515625 5.5546875 C-2 3 -2 3 0 0 Z " fill="#E48587" transform="translate(158,187)"/>
<path d="M0 0 C11.88 2.97 11.88 2.97 24 6 C24 13.92 24 21.84 24 30 C19.5608515 29.2167967 15.12383404 28.42385428 10.6875 27.625 C8.79354492 27.29242188 8.79354492 27.29242188 6.86132812 26.953125 C5.65283203 26.73398438 4.44433594 26.51484375 3.19921875 26.2890625 C2.08377686 26.09006348 0.96833496 25.89106445 -0.1809082 25.68603516 C-3 25 -3 25 -6 23 C-3.03 11.615 -3.03 11.615 0 0 Z " fill="#DF6E71" transform="translate(20,139)"/>
<path d="M0 0 C0.33 0 0.66 0 1 0 C1.33 6.27 1.66 12.54 2 19 C1.67 19 1.34 19 1 19 C0.67 20.65 0.34 22.3 0 24 C-0.33 24 -0.66 24 -1 24 C-0.67 16.08 -0.34 8.16 0 0 Z " fill="#E28285" transform="translate(290,84)"/>
<path d="M0 0 C4.62 0.66 9.24 1.32 14 2 C14 2.33 14 2.66 14 3 C8.06 3.495 8.06 3.495 2 4 C1.34 2.68 0.68 1.36 0 0 Z " fill="#F1C3C4" transform="translate(216,189)"/>
</svg>
