<?xml version="1.0" encoding="UTF-8"?>
<svg version="1.1" xmlns="http://www.w3.org/2000/svg" width="240" height="61">
<path d="M0 0 C79.2 0 158.4 0 240 0 C240 20.13 240 40.26 240 61 C160.8 61 81.6 61 0 61 C0 40.87 0 20.74 0 0 Z " fill="#DF7275" transform="translate(0,0)"/>
<path d="M0 0 C1.67542976 0.28604898 3.34385343 0.61781233 5 1 C5.625 3.375 5.625 3.375 6 6 C5.34 6.66 4.68 7.32 4 8 C4.99 9.32 5.98 10.64 7 12 C14.07893629 11.42212765 18.70219562 9.29780438 23.75 4.25 C24.4925 3.5075 25.235 2.765 26 2 C26.99 2 27.98 2 29 2 C29 2.66 29 3.32 29 4 C29.66 4 30.32 4 31 4 C31.1875 6.875 31.1875 6.875 31 10 C30.01 10.66 29.02 11.32 28 12 C27.731875 12.94875 27.46375 13.8975 27.1875 14.875 C25.63620886 18.95734511 23.8089289 19.98350823 20 22 C17.125 22.75 17.125 22.75 15 23 C15.66 23.99 16.32 24.98 17 26 C16.8125 28.0625 16.8125 28.0625 16 30 C13 32 13 32 10.9375 31.8125 C9 31 9 31 7 28 C7 27.01 7 26.02 7 25 C6.154375 24.773125 5.30875 24.54625 4.4375 24.3125 C0.41304847 22.77589123 -3.18550784 21.36287459 -6 18 C-6.8254316 14.84784846 -6.79848105 12.15707121 -6 9 C-4.0625 7.25 -4.0625 7.25 -2 6 C-1.27034634 3.43717258 -1.27034634 3.43717258 -1 1 C-0.67 0.67 -0.34 0.34 0 0 Z " fill="#E07476" transform="translate(39,26)"/>
<path d="M0 0 C4.54633071 1.90311518 6.74665796 4.66023014 9 9 C9.61917707 14.04187047 8.98408405 16.89688443 6 21 C5.34 20.67 4.68 20.34 4 20 C3.34 20.33 2.68 20.66 2 21 C1.34 21.33 0.68 21.66 0 22 C0.99 22.33 1.98 22.66 3 23 C-0.21498139 24.6074907 -3.51298258 24.47314549 -7 24 C-10.10352458 22.39076503 -12.21701424 20.99652733 -14.375 18.25 C-15.34195172 14.76897381 -15.68032925 11.53771212 -15 8 C-11.42781275 1.73493312 -7.09970369 -0.61204342 0 0 Z " fill="#975F5E" transform="translate(178,18)"/>
<path d="M0 0 C0.99 0.495 0.99 0.495 2 1 C2 8.26 2 15.52 2 23 C2.99 23 3.98 23 5 23 C5 22.36191406 5 21.72382812 5 21.06640625 C5 18.37760417 5 15.68880208 5 13 C4.67 15.97 4.34 18.94 4 22 C3.67 22 3.34 22 3 22 C3 14.66666667 3 7.33333333 3 0 C4.32 0 5.64 0 7 0 C7.33 1.98 7.66 3.96 8 6 C8.495 5.01 8.99 4.02 9.5 3 C12 0 12 0 14.046875 -0.3984375 C16.25 -0.375 16.25 -0.375 20 0 C18.59023295 3.03852705 16.91129772 5.5939595 14.875 8.25 C14.33617188 8.95640625 13.79734375 9.6628125 13.2421875 10.390625 C12.83226563 10.92171875 12.42234375 11.4528125 12 12 C12.5775 12.78246094 13.155 13.56492187 13.75 14.37109375 C14.86375 15.88896484 14.86375 15.88896484 16 17.4375 C16.7425 18.44683594 17.485 19.45617187 18.25 20.49609375 C20 23 20 23 20 24 C14.80310881 24.61658031 14.80310881 24.61658031 12 24 C9.82403854 21.93774674 8.39957179 19.63765454 7 17 C6.67 19.31 6.34 21.62 6 24 C4.02 24 2.04 24 0 24 C0 16.08 0 8.16 0 0 Z " fill="#855352" transform="translate(82,18)"/>
<path d="M0 0 C2.375 -0.125 2.375 -0.125 5 0 C7 2 7 2 7.125 5.125 C7.08375 6.07375 7.0425 7.0225 7 8 C7.639375 8.12375 8.27875 8.2475 8.9375 8.375 C9.618125 8.58125 10.29875 8.7875 11 9 C12.26237731 11.52475462 12.09856404 13.31200466 12.0625 16.125 C12.05347656 17.03507812 12.04445313 17.94515625 12.03515625 18.8828125 C12.02355469 19.58148437 12.01195313 20.28015625 12 21 C11.34 21 10.68 21 10 21 C10 21.66 10 22.32 10 23 C9.01 23 8.02 23 7 23 C6.67 18.71 6.34 14.42 6 10 C5.9071875 13.0628125 5.9071875 13.0628125 5.8125 16.1875 C5.47027012 20.55568413 5.29159259 22.56677673 2.8125 26.25 C-0.22795183 28.14183669 -2.44662719 28.75209027 -6 29 C-6.33 28.34 -6.66 27.68 -7 27 C-5.60804085 24.2160817 -3.84424221 24.02101003 -1 23 C-0.97314905 20.52076199 -0.95323453 18.0418116 -0.9375 15.5625 C-0.92912109 14.85544922 -0.92074219 14.14839844 -0.91210938 13.41992188 C-0.90346412 11.61306441 -0.94779989 9.80612397 -1 8 C-1.33 7.67 -1.66 7.34 -2 7 C-2.04063832 5.33382885 -2.042721 3.66611905 -2 2 C-1.34 2 -0.68 2 0 2 C0 1.34 0 0.68 0 0 Z " fill="#F1C2C3" transform="translate(53,5)"/>
<path d="M0 0 C5.28 0 10.56 0 16 0 C16 1.98 16 3.96 16 6 C13.03 6 10.06 6 7 6 C7 5.67 7 5.34 7 5 C9.31 5 11.62 5 14 5 C12.81575674 3.58422523 12.81575674 3.58422523 9.4375 3.9375 C7.7359375 3.9684375 7.7359375 3.9684375 6 4 C6 5.98 6 7.96 6 10 C8.64 10 11.28 10 14 10 C14 10.33 14 10.66 14 11 C11.03 11 8.06 11 5 11 C4.80598367 12.81181405 4.61995625 14.62448532 4.4375 16.4375 C4.33308594 17.44683594 4.22867188 18.45617187 4.12109375 19.49609375 C4.08113281 20.32238281 4.04117188 21.14867188 4 22 C4.33 22.33 4.66 22.66 5 23 C5 20.36 5 17.72 5 15 C8.465 14.505 8.465 14.505 12 14 C9.69 13.67 7.38 13.34 5 13 C5 12.67 5 12.34 5 12 C7.97 12 10.94 12 14 12 C14 13.32 14 14.64 14 16 C11.36 16 8.72 16 6 16 C6 18.64 6 21.28 6 24 C4.02 24 2.04 24 0 24 C0 16.08 0 8.16 0 0 Z " fill="#795755" transform="translate(191,18)"/>
<path d="M0 0 C5.61 0 11.22 0 17 0 C17 1.98 17 3.96 17 6 C14.36 6 11.72 6 9 6 C8.97315321 8.64590014 8.95323643 11.29153096 8.9375 13.9375 C8.92912109 14.69224609 8.92074219 15.44699219 8.91210938 16.22460938 C8.90347559 18.14994313 8.94775667 20.07535581 9 22 C9.33 22.33 9.66 22.66 10 23 C10 17.72 10 12.44 10 7 C10.33 7 10.66 7 11 7 C11 12.61 11 18.22 11 24 C9.02 24 7.04 24 5 24 C5 18.06 5 12.12 5 6 C3.35 6 1.7 6 0 6 C0 5.67 0 5.34 0 5 C5.28 5 10.56 5 16 5 C16 4.01 16 3.02 16 2 C15.34 2 14.68 2 14 2 C14 2.66 14 3.32 14 4 C9.38 4 4.76 4 0 4 C0 2.68 0 1.36 0 0 Z " fill="#7B5957" transform="translate(214,18)"/>
<path d="M0 0 C0.99 0 1.98 0 3 0 C3 0.66 3 1.32 3 2 C3.66 2 4.32 2 5 2 C5.1875 4.875 5.1875 4.875 5 8 C2 10 2 10 -0.84375 9.9296875 C-4.64381453 10.0143424 -6.32943562 11.09328777 -9.5 13.125 C-14.57156673 16.05355416 -14.57156673 16.05355416 -18.5 15.5625 C-22.52727273 13.04545455 -22.52727273 13.04545455 -24 11 C-24 10.01 -24 9.02 -24 8 C-23.01 7.67 -22.02 7.34 -21 7 C-20.01 8.485 -20.01 8.485 -19 10 C-11.92106371 9.42212765 -7.29780438 7.29780438 -2.25 2.25 C-1.5075 1.5075 -0.765 0.765 0 0 Z " fill="#FCF1F2" transform="translate(65,28)"/>
<path d="M0 0 C0.99 0 1.98 0 3 0 C4.67275302 3.62222211 6.33716251 7.2482166 8 10.875 C8.47695312 11.90753906 8.95390625 12.94007812 9.4453125 14.00390625 C9.89648438 14.99003906 10.34765625 15.97617187 10.8125 16.9921875 C11.44091797 18.35899658 11.44091797 18.35899658 12.08203125 19.75341797 C13 22 13 22 13 24 C11.02 24 9.04 24 7 24 C6.67 21.69 6.34 19.38 6 17 C2.7 17 -0.6 17 -4 17 C-3.01 15.515 -3.01 15.515 -2 14 C-2 14.66 -2 15.32 -2 16 C-0.35 16 1.3 16 3 16 C1.0745356 13.7763932 1.0745356 13.7763932 -2 13 C-3.46845421 7.52667068 -2.44038726 4.88077452 0 0 Z " fill="#805553" transform="translate(119,18)"/>
<path d="M0 0 C0 0.99 0 1.98 0 3 C-1.65 3 -3.3 3 -5 3 C-5 3.66 -5 4.32 -5 5 C-5.66 5 -6.32 5 -7 5 C-7 9.95 -7 14.9 -7 20 C-6.34 20 -5.68 20 -5 20 C-4.67 21.98 -4.34 23.96 -4 26 C-7 28 -7 28 -9.625 27.6875 C-12 27 -12 27 -13 26 C-13.125 23.5 -13.125 23.5 -13 21 C-12.67 20.67 -12.34 20.34 -12 20 C-11.86422266 16.66214042 -11.75203271 13.330901 -11.74609375 9.99023438 C-11.61044356 6.08850641 -11.36791103 4.37206486 -8.578125 1.55078125 C-5.01033074 -0.59530106 -3.97251831 -1.19175549 0 0 Z " fill="#FCF2F2" transform="translate(35,27)"/>
<path d="M0 0 C0.969375 0.28875 1.93875 0.5775 2.9375 0.875 C3.19144531 1.47570312 3.44539063 2.07640625 3.70703125 2.6953125 C5.5085355 5.8865486 8.42548006 6.97654324 11.5625 8.625 C17.61843623 12.01833564 17.61843623 12.01833564 18.79296875 15.171875 C18.75 17.375 18.75 17.375 17.9375 20.875 C15.9575 21.865 15.9575 21.865 13.9375 22.875 C12.9375 19.875 12.9375 19.875 13.1640625 17.39453125 C13.20925142 14.71509174 13.20925142 14.71509174 10.9609375 13.07421875 C5.95322519 10.21583429 2.80843752 8.5886128 -3.0625 8.875 C-4.9375 7.0625 -4.9375 7.0625 -6.0625 4.875 C-6.0625 3.885 -6.0625 2.895 -6.0625 1.875 C-3.0625 -0.125 -3.0625 -0.125 0 0 Z " fill="#FDF7F7" transform="translate(31.0625,3.125)"/>
<path d="M0 0 C2.20855704 2.13239991 2.90834435 3.47625341 3.4375 6.5 C3 9 3 9 1.5 11.3125 C-1.99885769 13.67422894 -4.89237586 13.58920838 -9 13 C-11.5 12 -11.5 12 -13 11 C-12.34 9.35 -11.68 7.7 -11 6 C-8.36 6.33 -5.72 6.66 -3 7 C-3.33 6.34 -3.66 5.68 -4 5 C-4.99 4.690625 -5.98 4.38125 -7 4.0625 C-7.99 3.711875 -8.98 3.36125 -10 3 C-10.33 2.01 -10.66 1.02 -11 0 C-9.68 0 -8.36 0 -7 0 C-4.24438552 -1.37780724 -2.90228766 -0.92023755 0 0 Z " fill="#915B5A" transform="translate(153,29)"/>
<path d="M0 0 C0.99 0.33 1.98 0.66 3 1 C3.6953125 2.9609375 3.6953125 2.9609375 4.125 5.375 C4.61930837 8.03732753 5.13999007 10.4199702 6 13 C5.01 14.485 5.01 14.485 4 16 C3.34 15.67 2.68 15.34 2 15 C1.01 15.495 1.01 15.495 0 16 C-0.66 16.33 -1.32 16.66 -2 17 C-1.01 17.33 -0.02 17.66 1 18 C-2.21451269 19.60725635 -5.43612536 19.05748185 -9 19 C-9 16 -9 16 -8 14 C-8.66 13.67 -9.32 13.34 -10 13 C-10.33 13.66 -10.66 14.32 -11 15 C-13.52259061 13.02579865 -13.9929808 12.03254358 -14.6875 8.8125 C-14.790625 7.884375 -14.89375 6.95625 -15 6 C-12.43573501 7.09897071 -10.96654483 8.03669277 -9.0625 10.125 C-7.12211906 12.26752004 -7.12211906 12.26752004 -4.25 12.25 C-3.13625 12.12625 -3.13625 12.12625 -2 12 C-0.12944051 8.84343086 0.18682784 6.64314294 0 3 C0 2.01 0 1.02 0 0 Z " fill="#825857" transform="translate(180,23)"/>
<path d="M0 0 C2.64865903 1.01871501 3.93585651 1.51818548 5.4375 3.9375 C5.21419287 7.58484979 5.05377165 9.32122835 2.4375 11.9375 C-4.02403846 11.47596154 -4.02403846 11.47596154 -6.5625 8.9375 C-7.08838107 5.60691989 -6.84656594 4.33729651 -4.875 1.5625 C-2.5625 -0.0625 -2.5625 -0.0625 0 0 Z " fill="#DD7477" transform="translate(175.5625,24.0625)"/>
<path d="M0 0 C2.44567315 1.55069855 4.28844789 3.15349611 6.15625 5.3671875 C6.15625 6.0271875 6.15625 6.6871875 6.15625 7.3671875 C4.83625 7.6971875 3.51625 8.0271875 2.15625 8.3671875 C1.82625 7.3771875 1.49625 6.3871875 1.15625 5.3671875 C-4.17804967 4.70040004 -6.89052656 6.33005487 -11.109375 9.2734375 C-12.84375 10.3671875 -12.84375 10.3671875 -14.84375 10.3671875 C-15.17375 11.6871875 -15.50375 13.0071875 -15.84375 14.3671875 C-15.988125 13.7690625 -16.1325 13.1709375 -16.28125 12.5546875 C-16.7309939 10.80568346 -17.27267341 9.08041727 -17.84375 7.3671875 C-15.45888619 5.96926733 -13.06406184 4.59952143 -10.65625 3.2421875 C-9.98271484 2.84386719 -9.30917969 2.44554687 -8.61523438 2.03515625 C-3.53925761 -0.78758205 -3.53925761 -0.78758205 0 0 Z " fill="#FDF7F8" transform="translate(34.84375,16.6328125)"/>
<path d="M0 0 C0.99 0.33 1.98 0.66 3 1 C2.67 3.97 2.34 6.94 2 10 C2.680625 10.2475 3.36125 10.495 4.0625 10.75 C7.56865083 12.24197908 10.71620368 14.06835511 14 16 C13.67 17.32 13.34 18.64 13 20 C10.68637791 18.68944504 8.37407322 17.3766597 6.0625 16.0625 C5.40314453 15.68931641 4.74378906 15.31613281 4.06445312 14.93164062 C-0.88671875 12.11328125 -0.88671875 12.11328125 -2 11 C-2.16796875 9.00390625 -2.16796875 9.00390625 -2.1875 6.5625 C-2.20167969 5.75941406 -2.21585938 4.95632812 -2.23046875 4.12890625 C-2 2 -2 2 0 0 Z " fill="#FEFCFC" transform="translate(35,33)"/>
<path d="M0 0 C0.99 0 1.98 0 3 0 C3.16225719 2.75236274 3.2809328 5.49517476 3.375 8.25 C3.45041016 9.41595703 3.45041016 9.41595703 3.52734375 10.60546875 C3.58567376 12.8803392 3.55533301 14.79099625 3 17 C0.15625 19.5625 0.15625 19.5625 -3 21 C-5.875 20.75 -5.875 20.75 -8 20 C-7.505 18.515 -7.505 18.515 -7 17 C-4.5 15.875 -4.5 15.875 -2 15 C-0.05909174 13.05909174 -0.60080565 9.52706098 -0.4375 6.9375 C-0.35371094 5.64714844 -0.26992188 4.35679688 -0.18359375 3.02734375 C-0.12300781 2.02832031 -0.06242187 1.02929688 0 0 Z " fill="#FEFBFB" transform="translate(54,13)"/>
<path d="M0 0 C1.33783393 -0.31478446 2.67203709 -0.64587656 4 -1 C4.99 -0.67 5.98 -0.34 7 0 C6.34 1.98 5.68 3.96 5 6 C2.69 5.67 0.38 5.34 -2 5 C-1.67 5.99 -1.34 6.98 -1 8 C-2.32 8 -3.64 8 -5 8 C-5.99 8.33 -6.98 8.66 -8 9 C-8.36174071 2.60924751 -8.36174071 2.60924751 -6.8125 0 C-4.25810529 -1.40932122 -2.77701316 -0.67732028 0 0 Z " fill="#6D514E" transform="translate(149,20)"/>
<path d="M0 0 C1 3 1 3 -1 8 C2.63 8 6.26 8 10 8 C9.67 8.66 9.34 9.32 9 10 C6.03 9.67 3.06 9.34 0 9 C1.18424326 10.41577477 1.18424326 10.41577477 4.5625 10.0625 C6.2640625 10.0315625 6.2640625 10.0315625 8 10 C8 10.66 8 11.32 8 12 C3.46298506 13.45184478 -0.18061476 14.23509196 -5 14 C-4.46515599 8.65155992 -2.53309233 4.64203897 0 0 Z " fill="#77514F" transform="translate(115,28)"/>
<path d="M0 0 C1.875 0.3125 1.875 0.3125 4 1 C6 4 6 4 5.8125 6.0625 C5 8 5 8 2 10 C-0.0625 9.9375 -0.0625 9.9375 -2 9 C-3.25 6.4375 -3.25 6.4375 -4 4 C-3.34 4 -2.68 4 -2 4 C-1.34 2.68 -0.68 1.36 0 0 Z " fill="#F8DEDF" transform="translate(50,48)"/>
<path d="M0 0 C0.66 0.99 1.32 1.98 2 3 C2.99 3.66 3.98 4.32 5 5 C5 5.66 5 6.32 5 7 C3.02 7 1.04 7 -1 7 C1.64 7.33 4.28 7.66 7 8 C7.33 7.34 7.66 6.68 8 6 C9.4606285 8.64738916 10 9.89448334 10 13 C8.68 13 7.36 13 6 13 C6 12.34 6 11.68 6 11 C3.36 11.33 0.72 11.66 -2 12 C-2 11.34 -2 10.68 -2 10 C-1.36191406 10.01160156 -0.72382812 10.02320313 -0.06640625 10.03515625 C0.75988281 10.04417969 1.58617188 10.05320312 2.4375 10.0625 C3.67306641 10.07990234 3.67306641 10.07990234 4.93359375 10.09765625 C6.99163938 10.23267348 6.99163938 10.23267348 8 9 C4.37 9 0.74 9 -3 9 C-2.24872886 5.24364431 -1.75994274 3.16789693 0 0 Z " fill="#BC6767" transform="translate(117,27)"/>
<path d="M0 0 C-0.125 2.25 -0.125 2.25 -1 5 C-4.2046111 7.75745607 -6.13293778 8.93577317 -10.375 9.25 C-11.24125 9.1675 -12.1075 9.085 -13 9 C-13 8.01 -13 7.02 -13 6 C-11.21118264 4.99491199 -9.41885304 3.99607264 -7.625 3 C-6.62726562 2.443125 -5.62953125 1.88625 -4.6015625 1.3125 C-2 0 -2 0 0 0 Z " fill="#FBEFEF" transform="translate(66,39)"/>
<path d="M0 0 C0.66 0 1.32 0 2 0 C2 4.95 2 9.9 2 15 C0.68 14.34 -0.64 13.68 -2 13 C-2.05391993 11.20866022 -2.09275571 9.41686101 -2.125 7.625 C-2.14820312 6.62726562 -2.17140625 5.62953125 -2.1953125 4.6015625 C-2 2 -2 2 0 0 Z " fill="#FDF6F6" transform="translate(19,32)"/>
<path d="M0 0 C2.125 5.625 2.125 5.625 1 9 C-1.375 9.1875 -1.375 9.1875 -4 9 C-6 6 -6 6 -6 2 C-3 0 -3 0 0 0 Z " fill="#F8DFDF" transform="translate(17,23)"/>
<path d="M0 0 C0 0.99 0 1.98 0 3 C-3.96 4.98 -7.92 6.96 -12 9 C-11 4 -11 4 -8.25 1.6875 C-5.05812918 0.03018246 -3.50678905 -0.41256342 0 0 Z " fill="#FDF8F8" transform="translate(28,12)"/>
<path d="M0 0 C0.99 0 1.98 0 3 0 C3 0.66 3 1.32 3 2 C3.7425 2.28875 4.485 2.5775 5.25 2.875 C7.56739797 3.82302644 9.77917115 4.84845911 12 6 C12 6.66 12 7.32 12 8 C8.23375329 9.25541557 6.62811066 8.37061958 3 7 C3 6.34 3 5.68 3 5 C1.68 4.34 0.36 3.68 -1 3 C-0.67 2.01 -0.34 1.02 0 0 Z " fill="#FDF6F6" transform="translate(33,49)"/>
<path d="M0 0 C2.625 0.375 2.625 0.375 5 1 C5.625 3.375 5.625 3.375 6 6 C5.34 6.66 4.68 7.32 4 8 C1.375 7.625 1.375 7.625 -1 7 C-1.625 4.625 -1.625 4.625 -2 2 C-1.34 1.34 -0.68 0.68 0 0 Z " fill="#FCF3F3" transform="translate(39,26)"/>
<path d="M0 0 C3 1 3 1 4 3 C4.06996014 4.70702735 4.08440154 6.41668003 4.0625 8.125 C4.05347656 9.03507812 4.04445313 9.94515625 4.03515625 10.8828125 C4.02355469 11.58148438 4.01195313 12.28015625 4 13 C2.68 13.33 1.36 13.66 0 14 C0 9.38 0 4.76 0 0 Z " fill="#FCF5F5" transform="translate(61,13)"/>
<path d="M0 0 C0.66 0.33 1.32 0.66 2 1 C2.22275681 4.26709987 2.32663401 6.39572708 0.75 9.3125 C-1.27115561 11.26147148 -2.20270767 11.83545339 -5 12 C-7.75 11.0625 -7.75 11.0625 -10 10 C-10.33 10.66 -10.66 11.32 -11 12 C-13.52259061 10.02579865 -13.9929808 9.03254358 -14.6875 5.8125 C-14.790625 4.884375 -14.89375 3.95625 -15 3 C-12.43573501 4.09897071 -10.96654483 5.03669277 -9.0625 7.125 C-7.12211906 9.26752004 -7.12211906 9.26752004 -4.25 9.25 C-3.13625 9.12625 -3.13625 9.12625 -2 9 C-0.14223235 5.86501708 0.20140476 3.62528568 0 0 Z " fill="#6A514E" transform="translate(180,26)"/>
<path d="M0 0 C4.19360449 0.67097672 7.40334352 2.8558394 11 5 C11 6.32 11 7.64 11 9 C6.69235185 7.43358249 2.93828536 5.31663844 -1 3 C-0.67 2.01 -0.34 1.02 0 0 Z " fill="#FEFBFB" transform="translate(38,2)"/>
<path d="M0 0 C1.32 0 2.64 0 4 0 C4.33 2.64 4.66 5.28 5 8 C1.125 10 1.125 10 0 10 C0 6.7 0 3.4 0 0 Z " fill="#8C5655" transform="translate(85,18)"/>
<path d="M0 0 C2.78489278 1.39244639 4.12301529 3.55991988 6 6 C5.01 6.99 4.02 7.98 3 9 C2.34 8.67 1.68 8.34 1 8 C1 7.34 1 6.68 1 6 C-0.4540625 5.5978125 -0.4540625 5.5978125 -1.9375 5.1875 C-2.948125 4.795625 -3.95875 4.40375 -5 4 C-5.33 3.01 -5.66 2.02 -6 1 C-4.68 1 -3.36 1 -2 1 C-1.34 0.67 -0.68 0.34 0 0 Z " fill="#785451" transform="translate(148,28)"/>
<path d="M0 0 C2.64 0 5.28 0 8 0 C6.44499019 3.81684226 3.96404505 6.19195732 1 9 C1.20625 8.2575 1.4125 7.515 1.625 6.75 C2.04408751 3.67669159 1.61949011 2.57213134 0 0 Z " fill="#8B5655" transform="translate(94,18)"/>
<path d="M0 0 C1.65 0.33 3.3 0.66 5 1 C5 1.33 5 1.66 5 2 C3.35 2 1.7 2 0 2 C0.66 2.66 1.32 3.32 2 4 C2.66 3.67 3.32 3.34 4 3 C7.73584906 4.47169811 7.73584906 4.47169811 9 7 C1.57142857 7.28571429 1.57142857 7.28571429 -2 5 C-1.34 3.35 -0.68 1.7 0 0 Z " fill="#654D4A" transform="translate(142,35)"/>
<path d="M0 0 C0.99 0.33 1.98 0.66 3 1 C5.33299825 1.03954234 7.66708189 1.04401732 10 1 C10 1.33 10 1.66 10 2 C8.14375 2.4021875 8.14375 2.4021875 6.25 2.8125 C2.86074962 3.64484241 0.68944114 4.72431903 -2 7 C-2.66 7 -3.32 7 -4 7 C-3.43628586 3.73045798 -2.50037734 2.17424117 0 0 Z " fill="#7A5654" transform="translate(168,20)"/>
<path d="M0 0 C1.65 0.33 3.3 0.66 5 1 C4.67 2.65 4.34 4.3 4 6 C2.35 5.67 0.7 5.34 -1 5 C-0.67 3.35 -0.34 1.7 0 0 Z " fill="#E27C7E" transform="translate(64,30)"/>
<path d="M0 0 C1.875 0.625 1.875 0.625 4 2 C5.25 5.125 5.25 5.125 6 8 C3.03 8 0.06 8 -3 8 C-2.34 7.01 -1.68 6.02 -1 5 C-1 5.66 -1 6.32 -1 7 C0.65 7 2.3 7 4 7 C2.0745356 4.7763932 2.0745356 4.7763932 -1 4 C-0.67 2.68 -0.34 1.36 0 0 Z " fill="#5A4845" transform="translate(118,27)"/>
<path d="M0 0 C0.99 0 1.98 0 3 0 C3.33 1.65 3.66 3.3 4 5 C2.35 5.33 0.7 5.66 -1 6 C-1.625 4.125 -1.625 4.125 -2 2 C-1.34 1.34 -0.68 0.68 0 0 Z " fill="#E2797C" transform="translate(29,4)"/>
<path d="M0 0 C0.33 0.66 0.66 1.32 1 2 C1.66 2 2.32 2 3 2 C2.67 2.99 2.34 3.98 2 5 C-5.625 6 -5.625 6 -9 6 C-9 5.34 -9 4.68 -9 4 C-2.25 2.875 -2.25 2.875 0 4 C0 2.68 0 1.36 0 0 Z " fill="#B06465" transform="translate(151,33)"/>
<path d="M0 0 C1.67542976 0.28604898 3.34385343 0.61781233 5 1 C5 2.32 5 3.64 5 5 C3.35 5 1.7 5 0 5 C-0.5625 3.0625 -0.5625 3.0625 -1 1 C-0.67 0.67 -0.34 0.34 0 0 Z " fill="#E07376" transform="translate(24,48)"/>
<path d="M0 0 C1.32 0.66 2.64 1.32 4 2 C3.34 3.32 2.68 4.64 2 6 C0.68 5.67 -0.64 5.34 -2 5 C-1.125 1.125 -1.125 1.125 0 0 Z " fill="#DF7072" transform="translate(50,50)"/>
<path d="M0 0 C0.99 0 1.98 0 3 0 C4.75 1.8125 4.75 1.8125 6 4 C5 7 5 7 3 8 C1.49440461 6.03617993 0.10868317 4.21736634 -1 2 C-0.67 1.34 -0.34 0.68 0 0 Z " fill="#B96667" transform="translate(120,25)"/>
<path d="M0 0 C1.98 0.495 1.98 0.495 4 1 C4 2.32 4 3.64 4 5 C2.35 4.67 0.7 4.34 -1 4 C-0.67 2.68 -0.34 1.36 0 0 Z " fill="#DF6E71" transform="translate(14,25)"/>
<path d="M0 0 C0.66 0 1.32 0 2 0 C1.67 1.65 1.34 3.3 1 5 C-2.68754757 4.50168276 -4.60490662 3.89932357 -7 1 C-5.5459375 1.0309375 -5.5459375 1.0309375 -4.0625 1.0625 C-1.12534105 1.35618499 -1.12534105 1.35618499 0 0 Z " fill="#9F6060" transform="translate(153,21)"/>
<path d="M0 0 C1.98 0.495 1.98 0.495 4 1 C4 2.32 4 3.64 4 5 C2.35 5 0.7 5 -1 5 C-0.67 3.35 -0.34 1.7 0 0 Z " fill="#DF7073" transform="translate(54,7)"/>
<path d="M0 0 C0.99 0.33 1.98 0.66 3 1 C3.33 1.99 3.66 2.98 4 4 C4.66 4.66 5.32 5.32 6 6 C5.34 6 4.68 6 4 6 C3.67 6.66 3.34 7.32 3 8 C2.01 7.34 1.02 6.68 0 6 C-0.1875 2.875 -0.1875 2.875 0 0 Z M6 4 C8 5 8 5 8 5 Z " fill="#B66767" transform="translate(142,23)"/>
<path d="M0 0 C1.32 0.66 2.64 1.32 4 2 C2.68 3.32 1.36 4.64 0 6 C0 5.01 0 4.02 0 3 C-0.99 3.99 -1.98 4.98 -3 6 C-1.125 1.125 -1.125 1.125 0 0 Z " fill="#724E4C" transform="translate(93,20)"/>
<path d="M0 0 C1.98 0.66 3.96 1.32 6 2 C5.401875 2.268125 4.80375 2.53625 4.1875 2.8125 C2.02775192 3.98493467 0.64209744 5.19369282 -1 7 C-0.67 4.69 -0.34 2.38 0 0 Z " fill="#E48486" transform="translate(37,33)"/>
<path d="M0 0 C0.33 1.32 0.66 2.64 1 4 C-2.40562852 4.77842938 -5.50765756 5.09978121 -9 5 C-8.443125 4.731875 -7.88625 4.46375 -7.3125 4.1875 C-4.80287477 2.89877353 -2.40665764 1.47073522 0 0 Z " fill="#B66868" transform="translate(182,36)"/>
<path d="M0 0 C1.65 0.33 3.3 0.66 5 1 C5 1.33 5 1.66 5 2 C3.35 2 1.7 2 0 2 C0.33 3.32 0.66 4.64 1 6 C0.01 5.67 -0.98 5.34 -2 5 C-1.34 3.35 -0.68 1.7 0 0 Z " fill="#765250" transform="translate(142,35)"/>
</svg>
